<svg class="animated" id="freepik_stories-bad-idea" xmlns="http://www.w3.org/2000/svg" viewBox="0 0 500 500" version="1.1" xmlns:xlink="http://www.w3.org/1999/xlink" xmlns:svgjs="http://svgjs.com/svgjs"><style>svg#freepik_stories-bad-idea:not(.animated) .animable {opacity: 0;}svg#freepik_stories-bad-idea.animated #freepik--light-bulb-1--inject-110 {animation: 1.5s Infinite  linear shake;animation-delay: 0s;}            @keyframes shake {                10%, 90% {                    transform: translate3d(-1px, 0, 0);                  }                  20%, 80% {                    transform: translate3d(2px, 0, 0);                  }                  30%, 50%, 70% {                    transform: translate3d(-4px, 0, 0);                  }                  40%, 60% {                    transform: translate3d(4px, 0, 0);                  }            }        </style><g id="freepik--background-simple--inject-110" class="animable" style="transform-origin: 255.952px 223.915px;"><path d="M289.93,334.38l.8-2.82c6.71-23.78.23-49.42-17.56-66.24a64.62,64.62,0,0,0-7.32-6c-18.63-13-44.1-15.69-65.3-6.88-12.47,5.18-24,14.15-37.48,14.45-17.5.4-31.27-13.77-42.72-26.85s-25.26-27.23-42.76-26.75c-11,.29-21.08,6.58-28.74,14.51-20.26,21-25.48,53.62-17.34,81.35s28,50.76,51.45,67.55c32.84,23.52,74.54,36.12,114.74,29.6S275.55,372.54,289.93,334.38Z" style="fill: rgb(245, 245, 245); transform-origin: 160.579px 310.644px;" id="elc5xombzdh1s" class="animable"></path><g id="elvy5tbuj3v2"><circle cx="437.03" cy="310.67" r="33.26" style="fill: rgb(245, 245, 245); transform-origin: 437.03px 310.67px; transform: rotate(-45deg);" class="animable"></circle></g><g id="eldjf6g0zuqd"><circle cx="202.61" cy="77.93" r="33.26" style="fill: rgb(245, 245, 245); transform-origin: 202.61px 77.93px; transform: rotate(-80.88deg);" class="animable"></circle></g></g><g id="freepik--Floor--inject-110" class="animable" style="transform-origin: 246px 470.52px;"><path d="M459.33,470.52c0,.14-95.52.26-213.32.26s-213.34-.12-213.34-.26,95.5-.26,213.34-.26S459.33,470.37,459.33,470.52Z" style="fill: rgb(38, 50, 56); transform-origin: 246px 470.52px;" id="el0si9di8bdtc" class="animable"></path></g><g id="freepik--light-bulb-2--inject-110" class="animable" style="transform-origin: 316.728px 415.243px;"><path d="M358.73,462.71a55.32,55.32,0,1,0-81.37-45.9l-12.31,6.59L288,466.14s7.05-3.44,13.26-6.65A55.28,55.28,0,0,0,358.73,462.71Z" style="fill: rgb(235, 235, 235); transform-origin: 326.488px 413.942px;" id="elcwty3u3epak" class="animable"></path><path d="M358.73,462.71s-.31.18-.94.5-1.57.81-2.82,1.39a57.5,57.5,0,0,1-11.49,3.69,55.09,55.09,0,0,1-19,.5,56.18,56.18,0,0,1-23.37-9.14h.2L288,466.33l-.18.09-.09-.18-22.93-42.73-.12-.21.22-.12,12.3-6.59-.13.23a60.41,60.41,0,0,1,.66-11.81,58.45,58.45,0,0,1,3.28-11.75,53.9,53.9,0,0,1,5.94-11,52.54,52.54,0,0,1,8.44-9.59l.9-.82.95-.76,1.89-1.51q2-1.43,4-2.73l2.08-1.21,1-.6c.35-.19.72-.35,1.07-.52,1.45-.67,2.87-1.37,4.31-2a56.42,56.42,0,0,1,18.14-4,53.4,53.4,0,0,1,17.81,2,59.08,59.08,0,0,1,15.66,7.11A53.12,53.12,0,0,1,379.91,385l1,1.65a17.19,17.19,0,0,1,.93,1.67l1.61,3.42a27.53,27.53,0,0,1,1.35,3.46c.39,1.16.87,2.29,1.17,3.45s.57,2.33.85,3.48c.12.58.31,1.14.38,1.72l.24,1.73c.16,1.15.34,2.29.47,3.41s.09,2.26.14,3.37c0,.56.05,1.11.07,1.66s-.05,1.09-.07,1.63c-.06,1.09-.12,2.16-.18,3.22a10.19,10.19,0,0,1-.17,1.57c-.08.52-.15,1-.23,1.55-.16,1-.3,2-.48,3s-.49,1.94-.73,2.9l-.36,1.42-.18.7-.24.68c-.32.9-.64,1.78-1,2.66a21.14,21.14,0,0,1-1,2.55l-1.13,2.4a18.93,18.93,0,0,1-1.17,2.29c-.87,1.44-1.65,2.87-2.51,4.18s-1.82,2.47-2.67,3.64-1.87,2.12-2.73,3.11c-.45.48-.86,1-1.3,1.42l-1.35,1.23-2.48,2.27c-.82.64-1.62,1.22-2.35,1.76l-2,1.51c-.63.43-1.25.76-1.78,1.09l-2.45,1.44c-.55.32-.84.47-.84.47l.82-.52,2.41-1.48c.53-.34,1.14-.67,1.77-1.11l2-1.52c.72-.55,1.51-1.13,2.33-1.78l2.45-2.27,1.34-1.24c.44-.44.84-.94,1.28-1.42.86-1,1.82-2,2.7-3.12l2.64-3.63c.85-1.31,1.63-2.73,2.49-4.17a18.7,18.7,0,0,0,1.15-2.28l1.11-2.4a19.29,19.29,0,0,0,1-2.53l.93-2.65.24-.68.18-.7c.11-.46.23-.94.35-1.41q.35-1.43.72-2.88c.17-1,.3-2,.46-3,.08-.51.16-1,.23-1.54a10.06,10.06,0,0,0,.17-1.56c.05-1.06.11-2.12.17-3.2,0-.54.08-1.08.06-1.62s-.05-1.1-.07-1.65c-.05-1.1-.1-2.22-.15-3.34s-.32-2.25-.47-3.39c-.09-.57-.17-1.14-.25-1.71s-.26-1.14-.38-1.71c-.28-1.14-.57-2.29-.85-3.45s-.78-2.28-1.17-3.43a26.11,26.11,0,0,0-1.35-3.42l-1.6-3.39a13.52,13.52,0,0,0-.93-1.66c-.32-.54-.65-1.09-1-1.64a59.59,59.59,0,0,0-4.47-6.37A60.22,60.22,0,0,0,363,368a58.67,58.67,0,0,0-15.53-7,53,53,0,0,0-17.65-2,56.13,56.13,0,0,0-18,4c-1.43.64-2.84,1.33-4.27,2-.35.17-.72.33-1.06.52l-1,.59-2.05,1.2c-1.33.86-2.64,1.77-3.94,2.7l-1.87,1.5-.94.75-.89.82a52.2,52.2,0,0,0-8.36,9.49,53.69,53.69,0,0,0-5.89,10.92,58.24,58.24,0,0,0-3.26,11.64,61,61,0,0,0-.66,11.71V417l-.13.07-12.31,6.58.1-.33L288.14,466l-.28-.09,13.26-6.63.1-.05.1.06a56,56,0,0,0,23.19,9.16,55.39,55.39,0,0,0,18.93-.41,59,59,0,0,0,11.48-3.58c1.26-.57,2.2-1,2.84-1.34Z" style="fill: rgb(38, 50, 56); transform-origin: 326.402px 413.909px;" id="eln24602d6sxi" class="animable"></path><path d="M274.29,439.72c15.68-8.73,31.94-16.4,47.47-25.41,3.13-1.82,6.25-3.7,9.22-5.78,3.74-2.6,7.67-5.9,7.9-10.81a7.15,7.15,0,0,0-2.26-5.78,8.69,8.69,0,0,0-5.87-1.81,22.39,22.39,0,0,0-12.53,4.67,24.71,24.71,0,0,0-10,23.29c1.34,9,7.62,17.09,16.31,20,8.54,2.87,19.63.93,25.77-6,2.65-3,4.8-7.86,2.26-11.57s-7.24-3.41-11-2.44c-4.36,1.11-8.57,3.15-12.67,5-4.78,2.13-9.5,4.41-14.2,6.72-9.67,4.78-19.22,9.79-28.9,14.56-2.13,1.05-4.28,2.09-6.43,3.11-.73.35-.09,1.43.63,1.08,17.26-8.17,33.92-17.59,51.44-25.23,3.86-1.68,7.87-3.62,12.05-4.36a9.53,9.53,0,0,1,6.21.59,5.49,5.49,0,0,1,2.74,5.41c-.42,4.63-4.39,8.18-8.22,10.27a24.58,24.58,0,0,1-13,2.88,23.39,23.39,0,0,1-15.9-39,24.17,24.17,0,0,1,10.62-6.89c4.07-1.26,10.51-1.72,11.59,3.72,1,5.2-3.54,9-7.32,11.61-2.62,1.82-5.36,3.49-8.11,5.1-14.35,8.42-29.35,15.67-44,23.55q-2.22,1.18-4.43,2.42c-.7.39-.07,1.47.64,1.08Z" style="fill: rgb(255, 255, 255); transform-origin: 313.525px 419.366px;" id="elr7pcwn7wkhi" class="animable"></path><g id="freepik--2ggvdetif--inject-110" class="animable" style="transform-origin: 251.11px 458.1px;"><path d="M246.65,448.6a15.18,15.18,0,0,1-1,4.12,3.26,3.26,0,0,0,.14,2.84l4.61,8.6a3.32,3.32,0,0,0,2.57,1.73,6.08,6.08,0,0,1,3.86,1.71Z" style="fill: rgb(69, 90, 100); transform-origin: 251.11px 458.1px;" id="eld1qtw05x85o" class="animable"></path></g><path d="M265.59,426.44c-.17.09-12.53,9.3-17.25,12.82a7.16,7.16,0,0,0-3,6.16,6.67,6.67,0,0,0,.78,2.74L256.25,467s2.64,4.91,7.13,3.94c4.74-1,22.07-7.48,22.07-7.48Z" style="fill: rgb(38, 50, 56); transform-origin: 265.391px 448.753px;" id="el07jiy39njam8" class="animable"></path><g id="eli7b5uvqrs2g"><rect x="256.84" y="434.6" width="2.23" height="39.29" rx="1.06" style="fill: rgb(224, 224, 224); transform-origin: 257.955px 454.245px; transform: rotate(-28.43deg);" class="animable"></rect></g><path d="M265.83,471.13a1.22,1.22,0,0,0,.63.47,1.08,1.08,0,0,0,.92-.17,1,1,0,0,0,.43-1.12c-.93-1.79-2.41-4.4-4.16-7.62l-13.72-25.23a.85.85,0,0,0-.69-.46.89.89,0,0,0-.43.07,1.08,1.08,0,0,0-.37.24.87.87,0,0,0-.24.79,4.66,4.66,0,0,0,.43.87l1.91,3.55,3.63,6.71c2.29,4.28,4.36,8.13,6.11,11.38l4.09,7.68c.47.89.83,1.59,1.1,2.09l.27.55.09.2a.74.74,0,0,1-.12-.18l-.31-.53-1.15-2.07c-1-1.82-2.44-4.42-4.2-7.62s-3.85-7.08-6.18-11.34c-1.16-2.13-2.37-4.38-3.64-6.7l-1.92-3.54-.24-.46a1.54,1.54,0,0,1-.22-.52,1.21,1.21,0,0,1,.33-1.11,1.65,1.65,0,0,1,.49-.32,1.23,1.23,0,0,1,1.58.55c5.32,9.86,10.13,18.79,13.62,25.28,1.73,3.25,3.16,5.83,4.08,7.7a1.13,1.13,0,0,1-.52,1.25,1.15,1.15,0,0,1-1,.15A.91.91,0,0,1,265.83,471.13Z" style="fill: rgb(38, 50, 56); transform-origin: 257.904px 454.18px;" id="eliugcpxuw9p" class="animable"></path><g id="eloncut17345"><rect x="261.07" y="431.54" width="2.23" height="40.87" rx="1.06" style="fill: rgb(224, 224, 224); transform-origin: 262.185px 451.975px; transform: rotate(-28.43deg);" class="animable"></rect></g><path d="M270.43,469.55a1.21,1.21,0,0,0,.67.48,1.09,1.09,0,0,0,.94-.22,1,1,0,0,0,.34-1.19L268,460.7l-14.24-26.21a.9.9,0,0,0-.73-.45.85.85,0,0,0-.44.09,1.09,1.09,0,0,0-.38.27.88.88,0,0,0-.16.84c.11.27.32.61.48.91l2,3.69c1.3,2.42,2.56,4.75,3.76,7l6.35,11.81,4.25,8c.49.93.87,1.66,1.15,2.18.11.24.21.42.28.57s.1.2.09.2l-.12-.18-.32-.56c-.28-.51-.69-1.23-1.2-2.14l-4.35-7.93c-1.83-3.35-4-7.34-6.42-11.77l-3.78-7-2-3.69a9.68,9.68,0,0,1-.5-1,1.21,1.21,0,0,1,.23-1.18,1.27,1.27,0,0,1,.49-.36,1.09,1.09,0,0,1,.61-.13,1.23,1.23,0,0,1,1,.64l14.16,26.26c1.8,3.37,3.26,6.08,4.25,8a1.13,1.13,0,0,1-.41,1.33,1.15,1.15,0,0,1-1,.2A.93.93,0,0,1,270.43,469.55Z" style="fill: rgb(38, 50, 56); transform-origin: 262.095px 451.893px;" id="elgf1omfrvpnh" class="animable"></path><path d="M274.9,467.72l-18.93-35a1.07,1.07,0,0,1,.43-1.44l.1-.05a1,1,0,0,1,1.43.43l18.93,35a1,1,0,0,1-.43,1.43l-.1.06A1,1,0,0,1,274.9,467.72Z" style="fill: rgb(224, 224, 224); transform-origin: 266.426px 449.69px;" id="elfndnnct0cx" class="animable"></path><path d="M274.9,467.72a1.08,1.08,0,0,0,1.64.24,1,1,0,0,0,.28-1.23l-4.46-8.11-14.58-26.84a.92.92,0,0,0-.76-.46,1,1,0,0,0-.44.11,1,1,0,0,0-.37.29.88.88,0,0,0-.12.87c.15.29.34.63.51.94l2,3.78,3.85,7.13c2.44,4.55,4.64,8.65,6.5,12.1l4.36,8.16c.49,1,.89,1.7,1.16,2.23l.3.59.09.2s0-.06-.12-.19-.19-.33-.33-.56c-.29-.53-.7-1.26-1.23-2.2l-4.45-8.11c-1.88-3.44-4.1-7.53-6.58-12.06l-3.86-7.13c-.68-1.23-1.36-2.49-2.05-3.77-.17-.33-.34-.62-.52-1a1.22,1.22,0,0,1,.16-1.22,1.39,1.39,0,0,1,.49-.39A1.35,1.35,0,0,1,257,431a1.25,1.25,0,0,1,1.06.65l14.5,26.89,4.35,8.17a1.12,1.12,0,0,1-.33,1.38,1.26,1.26,0,0,1-1.05.23A.94.94,0,0,1,274.9,467.72Z" style="fill: rgb(38, 50, 56); transform-origin: 266.323px 449.673px;" id="elso7hrqlwinm" class="animable"></path><g id="elzjb7ja3xwwc"><rect x="269.53" y="425.7" width="2.23" height="43.49" rx="1.06" style="fill: rgb(224, 224, 224); transform-origin: 270.645px 447.445px; transform: rotate(-28.43deg);" class="animable"></rect></g><path d="M279.51,466.16a1.15,1.15,0,0,0,.72.5,1.21,1.21,0,0,0,1-.3,1,1,0,0,0,.16-1.3l-4.62-8.42L261.62,428.8a.9.9,0,0,0-.79-.46,1.13,1.13,0,0,0-.82.46.9.9,0,0,0,0,.9l.54,1c.72,1.32,1.42,2.63,2.12,3.91l4,7.41,6.75,12.54L277.9,463l1.21,2.31.31.61q.1.21.09.21a1.25,1.25,0,0,1-.12-.19l-.34-.59c-.31-.54-.73-1.31-1.28-2.28-1.1-2-2.67-4.88-4.62-8.42l-6.81-12.51c-1.28-2.35-2.62-4.83-4-7.39l-2.12-3.91-.54-1a1.23,1.23,0,0,1,.54-1.7,1.23,1.23,0,0,1,.63-.19,1.25,1.25,0,0,1,1.11.65c5.87,10.88,11.18,20.74,15,27.89,1.91,3.56,3.45,6.45,4.53,8.47a1.15,1.15,0,0,1-.22,1.45,1.29,1.29,0,0,1-1.07.29,1.12,1.12,0,0,1-.58-.37A.58.58,0,0,1,279.51,466.16Z" style="fill: rgb(38, 50, 56); transform-origin: 270.591px 447.335px;" id="elw2z0x1jhzk" class="animable"></path><path d="M274.65,415.48c-.35.19-8.16,5.38-12.17,8a5.77,5.77,0,0,0-2.55,4.34l-.22,2.58,19.52,36.36,2.24,1.24a5.78,5.78,0,0,0,5.08.24l13.34-5.77Z" style="fill: rgb(69, 90, 100); transform-origin: 279.8px 442.098px;" id="elj3h9tzwmyjq" class="animable"></path><g id="elkaudhh4vy59"><g style="opacity: 0.3; transform-origin: 257.075px 454.77px;" class="animable"><path d="M248.87,439.6a53.24,53.24,0,0,0,5,11.29c1.68,3.1,3.23,6.19,5.11,9.52,1.37,2.44,2.72,4.65,4.14,7a7.85,7.85,0,0,0,2.16,2.53Z" id="el3llmg9p1rh6" class="animable" style="transform-origin: 257.075px 454.77px;"></path></g></g><g id="elkzmkjklmhui"><g style="opacity: 0.3; transform-origin: 261.245px 452.38px;" class="animable"><path d="M252.42,436a62,62,0,0,0,5.42,12.13c1.81,3.34,3.49,6.67,5.51,10.26,1.48,2.64,2.92,5,4.45,7.62a8.93,8.93,0,0,0,2.27,2.75Z" id="elk0cydepfo3q" class="animable" style="transform-origin: 261.245px 452.38px;"></path></g></g><g id="elfsqumw0mqt"><g style="opacity: 0.3; transform-origin: 265.42px 450.15px;" class="animable"><path d="M256.61,433.77A62.78,62.78,0,0,0,262,445.91c1.81,3.34,3.49,6.66,5.51,10.26,1.48,2.63,2.92,5,4.45,7.61a8.68,8.68,0,0,0,2.27,2.75Z" id="elrblp094herf" class="animable" style="transform-origin: 265.42px 450.15px;"></path></g></g><g id="elhlfyvtyq07t"><g style="opacity: 0.3; transform-origin: 269.64px 447.9px;" class="animable"><path d="M260.81,431.52a63,63,0,0,0,5.43,12.14c1.81,3.33,3.49,6.66,5.51,10.26,1.48,2.63,2.91,5,4.45,7.61a8.81,8.81,0,0,0,2.27,2.75Z" id="elq3g07uq6nkg" class="animable" style="transform-origin: 269.64px 447.9px;"></path></g></g><path d="M284.32,468.33c-.08.05-5.38-9.64-11.81-21.63s-11.59-21.76-11.5-21.81,5.37,9.64,11.81,21.64S284.41,468.28,284.32,468.33Z" style="fill: rgb(38, 50, 56); transform-origin: 272.665px 446.61px;" id="elomf86z1kxkh" class="animable"></path><path d="M300,462.12c-.09.06-5.88-10.44-12.93-23.44S274.39,415.1,274.48,415s5.88,10.44,12.93,23.44S300.09,462.07,300,462.12Z" style="fill: rgb(38, 50, 56); transform-origin: 287.24px 438.56px;" id="el10wacht7kha" class="animable"></path></g><g id="freepik--speech-bubble--inject-110" class="animable" style="transform-origin: 62.3676px 88.1061px;"><path d="M89.24,108.47l-8.42-.5a27.15,27.15,0,1,1,5.82-7.8h0Z" style="fill: rgb(255, 255, 255); transform-origin: 62.3223px 88.0965px;" id="elwlsm14klkf" class="animable"></path><path d="M89.24,108.47s0-.18-.15-.53l-.48-1.58c-.43-1.42-1.07-3.5-1.89-6.22l0-.11-.08.09h0l.11.08a27.23,27.23,0,0,0,2.87-13A25.84,25.84,0,0,0,89.1,83a29.35,29.35,0,0,0-1.23-4.35,27.06,27.06,0,0,0-13.64-15,27.33,27.33,0,0,0-11.38-2.75A27,27,0,0,0,50.7,63.48a26.69,26.69,0,0,0-10.08,8.21c-.33.45-.67.89-1,1.35s-.58,1-.86,1.44l-.43.71-.36.75-.72,1.5c-.22.5-.38,1-.57,1.54a12.41,12.41,0,0,0-.52,1.56,24.56,24.56,0,0,0-.7,3.17,27.63,27.63,0,0,0,.84,12.47,27.26,27.26,0,0,0,24.21,19.08,29.61,29.61,0,0,0,4.53-.06,34.92,34.92,0,0,0,4.16-.75A26.88,26.88,0,0,0,80.87,108l-.05,0,6.29.33,1.6.08.53,0-.55,0-1.62-.11-6.25-.41h0l0,0a27,27,0,0,1-11.62,6.33A34.29,34.29,0,0,1,65,115a30.57,30.57,0,0,1-4.5,0,27,27,0,0,1-18.14-8.83,27,27,0,0,1-5.78-10.1,27.3,27.3,0,0,1-.82-12.33,24.31,24.31,0,0,1,.69-3.13A13.88,13.88,0,0,1,37,79.09c.19-.51.36-1,.57-1.52s.47-1,.71-1.48l.35-.74.43-.71.85-1.42c.32-.45.65-.89,1-1.34a26.49,26.49,0,0,1,10-8.11,26.88,26.88,0,0,1,12-2.61,26.94,26.94,0,0,1,24.8,17.57A30.07,30.07,0,0,1,88.88,83a26.64,26.64,0,0,1,.47,4.16,27.16,27.16,0,0,1-2.77,13l-.23.46.34-.38h0l-.12,0,2,6.15.51,1.59Z" style="fill: rgb(38, 50, 56); transform-origin: 62.3676px 88.1061px;" id="elyub7hb096kg" class="animable"></path><g id="el6zkjydbehip"><rect x="60.28" y="76.24" width="5.28" height="23.68" style="fill: rgb(250, 200, 45); transform-origin: 62.92px 88.08px; transform: rotate(43.53deg);" class="animable"></rect></g><g id="elrie3orzoehk"><rect x="60.28" y="76.24" width="5.28" height="23.68" style="fill: rgb(250, 200, 45); transform-origin: 62.92px 88.08px; transform: rotate(-46.47deg);" class="animable"></rect></g></g><g id="freepik--light-bulb-1--inject-110" class="animable" style="transform-origin: 336.613px 170.395px;"><polygon points="379.53 125.84 377.77 109.77 358.42 99.73 353.89 79.44 337.36 64.69 325.96 81.79 307.79 64.17 296.49 74.68 307.06 120.15 335.84 142.76 360.42 142.7 379.53 125.84" style="fill: rgb(250, 200, 45); transform-origin: 338.01px 103.465px;" id="el6tq14ro435g" class="animable"></polygon><g id="elz4zj2qcq6gt"><polygon points="379.53 125.84 377.77 109.77 358.42 99.73 353.89 79.44 337.36 64.69 325.96 81.79 307.79 64.17 296.49 74.68 307.06 120.15 335.84 142.76 360.42 142.7 379.53 125.84" style="opacity: 0.2; transform-origin: 338.01px 103.465px;" class="animable"></polygon></g><path d="M409.43,83.19l-9.19,14.94L373.07,92,337.81,112.5,309,95.22,313.87,71,299.08,60l3.81-8.08a89,89,0,0,0-3.86,163c0,10.54.1,22.44.1,22.44l78-.34s.42-12.59.54-23.84a88.93,88.93,0,0,0,31.8-129.93Z" style="fill: rgb(250, 200, 45); transform-origin: 336.613px 144.64px;" id="el9b7bvvndwvp" class="animable"></path><path d="M330.36,236.45c-.26-13-.05-26,0-39,.1-14.08.19-28.18-.3-42.25-.2-5.53-.47-11.07-1.07-16.58-.8-7.27-2.13-15.51-8.72-19.86a11.43,11.43,0,0,0-10.06-1.57,13.55,13.55,0,0,0-7.17,7.09c-3.08,6.31-3.61,13.81-2.54,20.67,2.26,14.38,12.4,26.64,26.45,30.78s30,.21,39.68-11A40.12,40.12,0,0,0,375.75,146c1.27-6.75,1-14.25-2.05-20.51-2.78-5.7-8.74-11.14-15.53-8.84-6.11,2.07-8.61,8.93-9.72,14.72-1.31,6.78-1.66,13.83-2.09,20.71-.5,7.88-.8,15.76-1,23.65-.44,16.21-.53,32.43-1,48.64q-.15,5.34-.39,10.69c-.07,1.61,2.43,1.6,2.5,0,.67-14.71.79-29.44,1.06-44.16.28-14.89.6-29.81,1.77-44.67.5-6.27.76-12.9,2.81-18.9.91-2.64,2.28-5.39,4.56-7.1a8,8,0,0,1,8.12-.86c6,2.76,8.51,10.15,9.05,16.23A36.93,36.93,0,0,1,370.16,155,35.53,35.53,0,0,1,357,169.74a36.93,36.93,0,0,1-39.41-1.18A35.14,35.14,0,0,1,305.37,153a36.86,36.86,0,0,1-2.45-19.55c.93-5.91,4-15.08,11.53-14.29,8.06.85,10.75,9.83,11.7,16.55.74,5.16,1,10.37,1.28,15.57.59,12.89.56,25.81.51,38.71s-.25,25.78-.17,38.67q0,3.89.09,7.78a1.25,1.25,0,0,0,2.5,0Z" style="fill: rgb(38, 50, 56); transform-origin: 338.23px 176.9px;" id="elkrzved527re" class="animable"></path><g id="freepik--2ggvdetif--inject-110" class="animable" style="transform-origin: 338.405px 285.56px;"><path d="M321.07,282.43a24.38,24.38,0,0,1,5.11,4.49,5.22,5.22,0,0,0,4.15,1.95l15.69-.08a5.3,5.3,0,0,0,4.38-2.34c1.14-1.72,3.19-3.75,5.34-4.2Z" style="fill: rgb(69, 90, 100); transform-origin: 338.405px 285.56px;" id="elmrpt39zs8e" class="animable"></path></g><path d="M303.86,238.83c0,.31,3.76,24.8,5.2,34.16a11.56,11.56,0,0,0,6.54,8.85,10.8,10.8,0,0,0,4.47,1l34.31-.18s9-.05,11-7.17c2.1-7.5,6-37,6-37Z" style="fill: rgb(38, 50, 56); transform-origin: 337.62px 260.665px;" id="eldt43wpay9s" class="animable"></path><g id="elz99fk7aozih"><rect x="306.02" y="268.82" width="63.18" height="3.59" rx="1.7" style="fill: rgb(224, 224, 224); transform-origin: 337.61px 270.615px; transform: rotate(-0.5deg);" class="animable"></rect></g><path d="M367.52,272.15a2,2,0,0,0,1.15-.54,1.77,1.77,0,0,0,.44-1.43,1.61,1.61,0,0,0-1.26-1.46c-3.25,0-8.07.11-14,.17l-46.17.48a1.44,1.44,0,0,0-1.18.65,1.52,1.52,0,0,0-.22.65,2.36,2.36,0,0,0,.06.72,1.43,1.43,0,0,0,.95.93,8.61,8.61,0,0,0,1.56.05l6.49-.05,12.26-.09,20.76-.12,14,0,3.81,0,1,0a1.3,1.3,0,0,1,.34,0,1.91,1.91,0,0,1-.34,0l-1,0-3.8.09-14,.21-20.76.25-12.26.12-6.48.06h-.83a3.23,3.23,0,0,1-.9-.08,2,2,0,0,1-1.34-1.31,2.54,2.54,0,0,1-.08-.94,1.87,1.87,0,0,1,.31-.92,2,2,0,0,1,1.65-.92l46.18-.31c5.92,0,10.67-.09,14,0a1.8,1.8,0,0,1,1.38,1.67,1.83,1.83,0,0,1-.53,1.52A1.48,1.48,0,0,1,367.52,272.15Z" style="fill: rgb(38, 50, 56); transform-origin: 337.48px 270.582px;" id="elt4y7y6dv0vm" class="animable"></path><path d="M368.74,264.42l-62.31.54a1.7,1.7,0,0,1-1.72-1.68v-.19a1.7,1.7,0,0,1,1.69-1.71l62.31-.54a1.7,1.7,0,0,1,1.72,1.68v.19A1.69,1.69,0,0,1,368.74,264.42Z" style="fill: rgb(224, 224, 224); transform-origin: 337.57px 262.9px;" id="elwvkjfib1z7" class="animable"></path><path d="M368.74,264.42a1.73,1.73,0,0,0,1.59-2.08,1.61,1.61,0,0,0-1.44-1.38l-14.52.21-48,.5a1.4,1.4,0,0,0-1.2.69,1.41,1.41,0,0,0-.2.69,1.61,1.61,0,0,0,.11.74,1.37,1.37,0,0,0,1.06.86c.47.05,1.12,0,1.66,0l6.74-.05,12.74-.09,21.56-.13,14.54,0,3.95,0,1,0,.35,0a1.22,1.22,0,0,1-.35,0l-1,0-3.95.09-14.53.22-21.57.25-12.73.13-6.74.06c-.59,0-1.09,0-1.77,0a2,2,0,0,1-1.5-1.22,2.35,2.35,0,0,1-.15-1,2,2,0,0,1,.28-1,2,2,0,0,1,1.7-1l48-.33c6.14,0,11.09-.05,14.55,0a1.8,1.8,0,0,1,1.58,1.58,1.92,1.92,0,0,1-.49,1.6A1.48,1.48,0,0,1,368.74,264.42Z" style="fill: rgb(38, 50, 56); transform-origin: 337.454px 262.844px;" id="el7rr2qh5k9o5" class="animable"></path><path d="M369.51,256.7l-63.93.55a1.69,1.69,0,0,1-1.71-1.68v-.19a1.68,1.68,0,0,1,1.68-1.71l63.93-.56a1.7,1.7,0,0,1,1.71,1.69V255A1.71,1.71,0,0,1,369.51,256.7Z" style="fill: rgb(224, 224, 224); transform-origin: 337.53px 255.18px;" id="elnxilztgemwd" class="animable"></path><path d="M369.51,256.7a1.88,1.88,0,0,0,1.21-.6,1.84,1.84,0,0,0,.36-1.55,1.6,1.6,0,0,0-1.54-1.32l-14.88.22-49.1.51a1.39,1.39,0,0,0-1.22.72,1.38,1.38,0,0,0-.19.71,1.76,1.76,0,0,0,.13.75,1.45,1.45,0,0,0,1.15.82c.52,0,1.15,0,1.72,0l6.9-.05,13-.1,22.08-.13,14.88,0,4.05,0,1,0,.36,0a1.65,1.65,0,0,1-.36,0l-1,0-4.05.09-14.88.22-22.08.25-13,.13-6.89.07c-.6,0-1.14,0-1.79,0a2,2,0,0,1-1.61-1.15,2.18,2.18,0,0,1-.18-1,1.93,1.93,0,0,1,.25-1,2,2,0,0,1,1.72-1l49.11-.34,14.89,0a1.79,1.79,0,0,1,1.7,1.52,1.9,1.9,0,0,1-.45,1.65A1.53,1.53,0,0,1,369.51,256.7Z" style="fill: rgb(38, 50, 56); transform-origin: 337.432px 255.195px;" id="eluihlch0xs78" class="animable"></path><path d="M370.77,249l-66.52.58a1.71,1.71,0,0,1-1.72-1.69v-.18a1.71,1.71,0,0,1,1.68-1.72l66.53-.58a1.71,1.71,0,0,1,1.71,1.69v.19A1.69,1.69,0,0,1,370.77,249Z" style="fill: rgb(224, 224, 224); transform-origin: 337.49px 247.495px;" id="elamybthejv2" class="animable"></path><path d="M370.77,249a1.83,1.83,0,0,0,1.24-.64,1.88,1.88,0,0,0,.31-1.62,1.62,1.62,0,0,0-1.72-1.21l-15.44.22-50.94.53A1.42,1.42,0,0,0,303,247a1.77,1.77,0,0,0,0,1.51,1.43,1.43,0,0,0,1.26.73l1.82,0,7.16-.05,13.52-.1,22.9-.14,15.45,0,4.19,0,1.09,0a1.59,1.59,0,0,1,.38,0l-.37,0-1.1,0-4.19.09-15.44.23-22.9.26-13.53.13-7.15.07-1.83,0a2,2,0,0,1-1.77-1,2.09,2.09,0,0,1-.25-1,2,2,0,0,1,2-2.12l50.94-.36,15.44,0a1.82,1.82,0,0,1,1.89,1.4,2,2,0,0,1-.39,1.73,1.75,1.75,0,0,1-1,.56A1,1,0,0,1,370.77,249Z" style="fill: rgb(38, 50, 56); transform-origin: 337.401px 247.488px;" id="elj541bdmtwc" class="animable"></path><path d="M295.1,217.71c0,.64,1.49,15.64,2.26,23.34a9.32,9.32,0,0,0,4.24,6.9l3.51,2.24,66.35-.34,3.44-2.25a9.28,9.28,0,0,0,4.18-7l1.85-23.29Z" style="fill: rgb(250, 200, 45); transform-origin: 338.015px 233.75px;" id="el7i6841kovur" class="animable"></path><g id="eldwn2dimfftj"><g style="opacity: 0.3; transform-origin: 337.75px 273.038px;" class="animable"><path d="M310,272.51c6.39,1.41,12.77,1.5,19.78,1.43,5.66-.05,11.22.07,17.37-.08,4.5-.12,8.65-.37,13.14-.59,2.27-.11,4.76-.69,5.21-1.15Z" id="elns3art0u5sf" class="animable" style="transform-origin: 337.75px 273.038px;"></path></g></g><g id="elnmqd7ub0p5k"><g style="opacity: 0.3; transform-origin: 337.47px 265.288px;" class="animable"><path d="M307.55,264.77c6.9,1.41,13.77,1.5,21.33,1.43,6.1-.06,12.09.07,18.72-.09,4.86-.12,9.32-.37,14.17-.59,2.45-.11,5.13-.7,5.62-1.16Z" id="elciy516f6vxk" class="animable" style="transform-origin: 337.47px 265.288px;"></path></g></g><g id="el5edg386uml9"><g style="opacity: 0.3; transform-origin: 337.43px 257.628px;" class="animable"><path d="M307.51,257.11c6.9,1.41,13.77,1.5,21.33,1.43,6.1-.06,12.09.06,18.72-.1,4.86-.11,9.33-.36,14.17-.58,2.45-.11,5.13-.7,5.62-1.16Z" id="eldrdb4beu9y" class="animable" style="transform-origin: 337.43px 257.628px;"></path></g></g><g id="eltsftxjd136o"><g style="opacity: 0.3; transform-origin: 337.39px 249.959px;" class="animable"><path d="M307.47,249.45c6.9,1.41,13.77,1.49,21.33,1.42,6.11-.05,12.09.07,18.72-.09,4.86-.12,9.33-.37,14.17-.59,2.45-.11,5.13-.7,5.62-1.16Z" id="elvxhp3vp5jjh" class="animable" style="transform-origin: 337.39px 249.959px;"></path></g></g><path d="M377.47,243.77c0,.16-17.75.38-39.63.49s-39.64.08-39.64-.08,17.74-.39,39.63-.5S377.47,243.61,377.47,243.77Z" style="fill: rgb(38, 50, 56); transform-origin: 337.835px 243.972px;" id="elx8aufu26fg" class="animable"></path><path d="M380.46,216.84c0,.17-19.27.49-43,.71s-43.06.24-43.07.07,19.26-.5,43-.72S380.45,216.66,380.46,216.84Z" style="fill: rgb(38, 50, 56); transform-origin: 337.425px 217.226px;" id="el7b1py9me1m9" class="animable"></path><g id="elu0l3qcn4f4k"><g style="opacity: 0.3; transform-origin: 338.015px 233.75px;" class="animable"><path d="M295.1,217.71c0,.64,1.49,15.64,2.26,23.34a9.32,9.32,0,0,0,4.24,6.9l3.51,2.24,66.35-.34,3.44-2.25a9.28,9.28,0,0,0,4.18-7l1.85-23.29Z" id="elycow4dqdtso" class="animable" style="transform-origin: 338.015px 233.75px;"></path></g></g><g id="elpkesi977uzd"><g style="opacity: 0.2; transform-origin: 392.996px 163.183px;" class="animable"><path d="M418.41,130c-2.18-6.62-12.21-11.15-16.06-1.72a13.81,13.81,0,0,0-.93,4.22c-.76,10.65-.51,22.56-7,31.22-3.7,4.93-9.16,8.16-14.26,11.63s-10.18,7.56-12.43,13.3c-1.91,4.87-2,13.34,5.3,14.67a10.78,10.78,0,0,0,6.9-1.17c10.08-5.31,16.15-11.77,23.26-21.5,6.81-9.32,10.34-17.85,13.56-28.4C418.61,146.11,420.58,136.61,418.41,130Z" style="fill: rgb(255, 255, 255); transform-origin: 392.996px 163.183px;" id="eld8w5pod3hma" class="animable"></path></g></g><g id="elnhmdq9a0d6a"><g style="opacity: 0.2; transform-origin: 271.817px 102.176px;" class="animable"><path d="M256.32,136.32c-.36,0-.76-1-1.2-3.07-.11-.5-.21-1.07-.33-1.69s-.13-1.29-.2-2a42.25,42.25,0,0,1-.2-5c0-.92.05-1.89.08-2.9s.19-2,.3-3.13a62.33,62.33,0,0,1,1.12-6.87,73.52,73.52,0,0,1,5.23-15.06,74.64,74.64,0,0,1,8.54-13.48A64.81,64.81,0,0,1,274.33,78c.79-.76,1.51-1.52,2.27-2.18l2.23-1.87a42.35,42.35,0,0,1,4-2.94c.62-.4,1.17-.78,1.72-1.1s1.06-.56,1.52-.79c1.85-.92,2.95-1.27,3.15-1s-.53,1.22-2,2.62c-.36.34-.76.72-1.21,1.12l-1.39,1.4c-1,1-2.18,2-3.34,3.37l-1.88,2c-.65.7-1.26,1.49-1.93,2.27-1.37,1.52-2.65,3.31-4,5.14a93.41,93.41,0,0,0-7.66,12.82,94.54,94.54,0,0,0-5.27,14c-.56,2.23-1.17,4.34-1.51,6.36-.19,1-.43,2-.57,2.92s-.27,1.85-.39,2.72c-.32,1.73-.39,3.32-.57,4.72-.08.69-.15,1.34-.22,1.95s-.08,1.15-.13,1.65C257,135.14,256.68,136.28,256.32,136.32Z" style="fill: rgb(255, 255, 255); transform-origin: 271.817px 102.176px;" id="elesmlgwj6v3g" class="animable"></path></g></g></g><g id="freepik--Character--inject-110" class="animable" style="transform-origin: 130.824px 275.541px;"><path d="M158.94,89.07a7.82,7.82,0,0,0-1.82-7.93c-2-2.06-3.7-2.06-3.41-2.33.92-2.46-1.09-5.25-3.58-6.07s-5.22-.19-7.72.61A11.19,11.19,0,0,0,122,69.78a10.63,10.63,0,0,0-16,12,7.44,7.44,0,0,0,3,14,28.54,28.54,0,0,0,1.77,10.47l42.42,3.45s1.17-7.31,1.17-9.9c0-3.2.24-6.22.24-6.22C155.09,93.69,158,91.76,158.94,89.07Z" style="fill: rgb(38, 50, 56); transform-origin: 130.691px 87.1206px;" id="elbep9npz48if" class="animable"></path><path d="M135.6,74.76l-1.13-.06a21.84,21.84,0,0,0-22.74,19c-1.38,10.5-2.76,22.12-3,27.78-.44,11.71,11.18,14.12,11.18,14.12l-1.69,14,28.47.53,5.05-50.9C153.42,87.13,147.75,76.07,135.6,74.76Z" style="fill: rgb(255, 191, 157); transform-origin: 130.374px 112.402px;" id="el5m36f8g7ynt" class="animable"></path><path d="M119.85,135.57a28.47,28.47,0,0,0,15.57-3.73s-4,8.25-15.67,6.61Z" style="fill: rgb(255, 154, 108); transform-origin: 127.585px 135.253px;" id="elt162hw0hv2n" class="animable"></path><path d="M116.58,104.92a1.68,1.68,0,0,0,1.53,1.77,1.61,1.61,0,0,0,1.8-1.43,1.68,1.68,0,0,0-1.53-1.77A1.61,1.61,0,0,0,116.58,104.92Z" style="fill: rgb(38, 50, 56); transform-origin: 118.245px 105.09px;" id="el8zoxinf0pu" class="animable"></path><path d="M114,99.54c.2.23,1.51-.64,3.31-.55s3.07,1.06,3.28.85-.09-.5-.65-1a4.68,4.68,0,0,0-2.61-1,4.47,4.47,0,0,0-2.65.72C114.07,99.05,113.86,99.44,114,99.54Z" style="fill: rgb(38, 50, 56); transform-origin: 117.308px 98.8524px;" id="el7p2uyxtr4bj" class="animable"></path><path d="M133.75,105.75a1.68,1.68,0,0,0,1.53,1.77,1.61,1.61,0,0,0,1.8-1.43,1.67,1.67,0,0,0-1.53-1.76A1.6,1.6,0,0,0,133.75,105.75Z" style="fill: rgb(38, 50, 56); transform-origin: 135.415px 105.924px;" id="elwizjg8t1opr" class="animable"></path><path d="M131.63,100.76c.2.22,1.51-.65,3.31-.56s3.08,1.06,3.28.85-.09-.49-.64-.94a4.57,4.57,0,0,0-2.62-1,4.42,4.42,0,0,0-2.64.71C131.74,100.27,131.54,100.65,131.63,100.76Z" style="fill: rgb(38, 50, 56); transform-origin: 134.946px 100.092px;" id="el0cfhqglwsg1n" class="animable"></path><path d="M124.44,113.78a12.16,12.16,0,0,0-2.9-.67c-.46-.07-.89-.19-1-.51a2.35,2.35,0,0,1,.38-1.34c.48-1.09,1-2.24,1.53-3.43,2.13-4.89,3.7-8.92,3.51-9s-2.09,3.81-4.23,8.7c-.51,1.21-1,2.36-1.47,3.46a2.66,2.66,0,0,0-.33,1.79,1.13,1.13,0,0,0,.72.71,3.7,3.7,0,0,0,.77.15A11.78,11.78,0,0,0,124.44,113.78Z" style="fill: rgb(38, 50, 56); transform-origin: 122.934px 106.324px;" id="el9pyzw0iy444" class="animable"></path><path d="M130.7,94.76c.21.46,1.78,0,3.68.08s3.48.43,3.68,0c.09-.22-.23-.65-.9-1a5.69,5.69,0,0,0-2.82-.74,5.58,5.58,0,0,0-2.79.71C130.9,94.11,130.6,94.53,130.7,94.76Z" style="fill: rgb(38, 50, 56); transform-origin: 134.378px 94.0749px;" id="elim1z6v5njdn" class="animable"></path><path d="M114.24,93.68c.36.43,1.87.08,3.65.14s3.29.44,3.66,0c.16-.2-.06-.62-.7-1a6.16,6.16,0,0,0-5.89-.14C114.31,93.06,114.08,93.47,114.24,93.68Z" style="fill: rgb(38, 50, 56); transform-origin: 117.896px 93.014px;" id="elafyegc1on2s" class="animable"></path><path d="M150.07,108.67a3.18,3.18,0,0,1,3.58-2.9c2.17.32,4.54,1.68,4.18,6.19-.66,8-8.55,5.69-8.54,5.46S149.76,112,150.07,108.67Z" style="fill: rgb(255, 191, 157); transform-origin: 153.578px 111.823px;" id="eljfi5qlg01m" class="animable"></path><path d="M151.27,114.55s.13.11.36.24a1.38,1.38,0,0,0,1,.1c.87-.24,1.69-1.52,1.85-3a4.75,4.75,0,0,0-.23-2,1.62,1.62,0,0,0-1-1.16.7.7,0,0,0-.85.32c-.13.21-.09.38-.14.39s-.16-.15-.07-.48a1,1,0,0,1,.36-.47,1,1,0,0,1,.79-.14,1.94,1.94,0,0,1,1.35,1.36,4.65,4.65,0,0,1,.3,2.26c-.18,1.61-1.13,3.05-2.31,3.29a1.5,1.5,0,0,1-1.26-.32C151.27,114.75,151.24,114.56,151.27,114.55Z" style="fill: rgb(255, 154, 108); transform-origin: 153.14px 111.806px;" id="elt4v3kdjqdm" class="animable"></path><path d="M146.83,78l-15.15-6.33-7.14,3-13.73,8.67L109,86.53c.09.2.19.41.3.6a9.49,9.49,0,0,0,17.53-2.32,7.42,7.42,0,0,0,9.59-3.37s1.37,6.65,7.74,3.18c-2.2,2.57,1,8.38,1.25,10.65.33,3.59-.62,6.58.13,10.11.38,1.82,1.21,5.92,3,6.41,1.42.38,2.84-2.53,3.59-3.8a8.78,8.78,0,0,0,.93-4.27,16.05,16.05,0,0,1,.42-4.38l.87-.44V85.46Z" style="fill: rgb(38, 50, 56); transform-origin: 131.675px 91.747px;" id="el2q5yyjajbi8" class="animable"></path><path d="M131.18,117.12c-.11.27-1.42,0-2.89.53s-2.35,1.5-2.6,1.34,0-.46.32-1a4.26,4.26,0,0,1,4.32-1.48C130.93,116.72,131.22,117,131.18,117.12Z" style="fill: rgb(38, 50, 56); transform-origin: 128.386px 117.7px;" id="els8bae212ni" class="animable"></path><path d="M116.17,91.23s-.15,0-.46,0a5,5,0,0,1-1.35-.14,6.94,6.94,0,0,1-4-2.86A7,7,0,0,1,109.15,85a7.83,7.83,0,0,1,.66-3.92,9.68,9.68,0,0,1,6.91-5.49,13.28,13.28,0,0,1,7.82.86l-.34.17A6.91,6.91,0,0,1,128,71.93a6.56,6.56,0,0,1,7.44,1.53,4.62,4.62,0,0,1,.52.66.76.76,0,0,1,.14.25s-.25-.3-.77-.8A6.68,6.68,0,0,0,132.73,72a6.16,6.16,0,0,0-4.52.28,6.52,6.52,0,0,0-3.53,4.45l-.06.29-.27-.11a13,13,0,0,0-7.52-.8,9.24,9.24,0,0,0-6.58,5.18,7.49,7.49,0,0,0-.67,3.68,6.71,6.71,0,0,0,1.09,3.07,6.88,6.88,0,0,0,3.74,2.87A12.63,12.63,0,0,0,116.17,91.23Z" style="fill: rgb(69, 90, 100); transform-origin: 122.609px 81.3034px;" id="el9ku86pycr0j" class="animable"></path><path d="M120.57,438.55,121.74,460s-21.42,8.41-21.59,12.39l41.71-.78-.46-33.53Z" style="fill: rgb(38, 50, 56); transform-origin: 121.005px 455.235px;" id="eldxsxacu3q1" class="animable"></path><path d="M134.61,458a1.7,1.7,0,0,1,1.21,1.92,1.63,1.63,0,0,1-1.89,1.22,1.79,1.79,0,0,1-1.28-2,1.7,1.7,0,0,1,2.11-1.05" style="fill: rgb(224, 224, 224); transform-origin: 134.236px 459.584px;" id="ellv09abglt3" class="animable"></path><path d="M141.86,471.63l-.18-3.38-39.92,2s-1.85.84-1.61,2.14Z" style="fill: rgb(69, 90, 100); transform-origin: 120.994px 470.32px;" id="elfbgrki7lsbg" class="animable"></path><path d="M121.06,459.82c0,.2,1,.28,2,.91s1.56,1.49,1.75,1.4-.14-1.25-1.38-2S121,459.63,121.06,459.82Z" style="fill: rgb(255, 255, 255); transform-origin: 122.959px 460.879px;" id="el3pstysk2pz" class="animable"></path><path d="M116.72,461.71c0,.2.85.53,1.56,1.38s.92,1.75,1.12,1.74.32-1.17-.59-2.2S116.72,461.52,116.72,461.71Z" style="fill: rgb(255, 255, 255); transform-origin: 118.131px 463.229px;" id="elh2ufqzfr9ow" class="animable"></path><path d="M114.34,467c.18,0,.45-1-.1-2.09s-1.5-1.53-1.58-1.36.51.75,1,1.67S114.13,467,114.34,467Z" style="fill: rgb(255, 255, 255); transform-origin: 113.61px 465.257px;" id="elsomqcwtzao" class="animable"></path><path d="M121.34,454.9c.09.18,1-.12,2.17-.06s2.06.4,2.16.23-.77-.89-2.13-.94S121.24,454.74,121.34,454.9Z" style="fill: rgb(255, 255, 255); transform-origin: 123.505px 454.622px;" id="el2iu2i5fvk4i" class="animable"></path><path d="M171.06,436.44l2.26,25.91-4.12,21a2.66,2.66,0,0,0,2.28,3.16h0a2.63,2.63,0,0,0,2.29-.84c3.72-4.05,17.32-19,17-20.92-.32-2.18-.57-27.49-.57-27.49Z" style="fill: rgb(38, 50, 56); transform-origin: 179.962px 461.486px;" id="el51hwalxhmup" class="animable"></path><path d="M171.48,486.52,190.71,463l.07,1.1a4,4,0,0,1-.79,2.66c-1.52,2-5.85,7.59-16.14,18.91a2.67,2.67,0,0,1-2.37.84Z" style="fill: rgb(69, 90, 100); transform-origin: 181.134px 474.77px;" id="elsi40w2p2f98" class="animable"></path><g id="elfxk0p9wmphr"><g style="opacity: 0.6; transform-origin: 185.76px 456.213px;" class="animable"><path d="M184.84,455a1.61,1.61,0,0,0-.3,2.13,1.55,1.55,0,0,0,2.11.32,1.71,1.71,0,0,0,.31-2.26,1.62,1.62,0,0,0-2.23-.09" style="fill: rgb(255, 255, 255); transform-origin: 185.76px 456.213px;" id="elp5lkjp45qwk" class="animable"></path></g></g><path d="M176.68,474.8a5.72,5.72,0,0,0-5.43-2.26c0-.06.29-.28.89-.41a4.26,4.26,0,0,1,2.36.27,4.15,4.15,0,0,1,1.85,1.48C176.68,474.39,176.75,474.77,176.68,474.8Z" style="fill: rgb(255, 255, 255); transform-origin: 173.977px 473.435px;" id="elon6i3o54sj" class="animable"></path><path d="M175.06,478.39a22,22,0,0,0-2.37-1,21.25,21.25,0,0,0-2.56-.16,3,3,0,0,1,2.69-.39C174.37,477.22,175.19,478.31,175.06,478.39Z" style="fill: rgb(255, 255, 255); transform-origin: 172.602px 477.536px;" id="elm0fzfsvs3od" class="animable"></path><path d="M179.84,470.12a26.07,26.07,0,0,0-3.56-1.74,26.44,26.44,0,0,0-3.91-.65,7.26,7.26,0,0,1,7.47,2.39Z" style="fill: rgb(255, 255, 255); transform-origin: 176.105px 468.802px;" id="elxa19z5uy6x" class="animable"></path><path d="M179.81,462.19c-.06.16-1.53-.35-3.4-.3s-3.32.6-3.39.44a5.17,5.17,0,0,1,3.38-1A5.09,5.09,0,0,1,179.81,462.19Z" style="fill: rgb(255, 255, 255); transform-origin: 176.415px 461.83px;" id="eldeml3v0mdgr" class="animable"></path><path d="M179.34,454.56a13.1,13.1,0,0,0-3.53-.4,12.94,12.94,0,0,0-3.39,1.09c0-.06.22-.4.79-.78a5.73,5.73,0,0,1,2.54-.88,5.81,5.81,0,0,1,2.66.36C179.05,454.22,179.38,454.5,179.34,454.56Z" style="fill: rgb(255, 255, 255); transform-origin: 175.882px 454.406px;" id="eljfg5ul2zzxq" class="animable"></path><path d="M175.76,452.71a2.4,2.4,0,0,1-.1-1,6.81,6.81,0,0,1,.62-2.62,3.05,3.05,0,0,1,1.2-1.53,1.07,1.07,0,0,1,1.22.16,1.74,1.74,0,0,1,.49,1.15,3.77,3.77,0,0,1-3.07,3.69,4.39,4.39,0,0,1-4.43-2,1.47,1.47,0,0,1-.15-1.25,1,1,0,0,1,1.06-.63,3.72,3.72,0,0,1,1.76.78,7.47,7.47,0,0,1,1.9,1.9,2.45,2.45,0,0,1,.46.87,12.63,12.63,0,0,0-2.58-2.44,3.57,3.57,0,0,0-1.56-.64.57.57,0,0,0-.58.34,1.06,1.06,0,0,0,.15.82A3.9,3.9,0,0,0,176,452a3.26,3.26,0,0,0,2.65-3.09,1.21,1.21,0,0,0-.3-.81.56.56,0,0,0-.67-.1,2.68,2.68,0,0,0-1.05,1.27A10.25,10.25,0,0,0,175.76,452.71Z" style="fill: rgb(255, 255, 255); transform-origin: 175.327px 450.074px;" id="el96mxf0l61gk" class="animable"></path><path d="M99.91,258.25a92.1,92.1,0,0,0-2,27.16c.44,5.77,19.92,165.48,19.92,165.48h26.31l-7.4-150.1,2.16.46s14.35,64,15.53,74.39c1.05,9.31,13.16,77,13.16,77l24.05.27-7.68-89.52L175,277.49l-3.36-25Z" style="fill: rgb(38, 50, 56); transform-origin: 144.646px 352.7px;" id="elieoaiab9gph" class="animable"></path><path d="M140.87,285.47a4.59,4.59,0,0,1-1.1.62,12.41,12.41,0,0,1-3.25,1.14,6.8,6.8,0,0,1-2.43,0,4.94,4.94,0,0,1-2.53-1.22,6,6,0,0,1-1.54-2.68,31.79,31.79,0,0,1-.7-3.17c-.84-4.33-1.41-8.28-1.74-11.15-.17-1.44-.28-2.6-.34-3.41a5.08,5.08,0,0,1,0-1.26,5.93,5.93,0,0,1,.25,1.24c.14.91.31,2,.51,3.37.43,2.86,1.06,6.79,1.89,11.11.43,2.13.72,4.31,2,5.58a5.46,5.46,0,0,0,4.54,1.18,14.49,14.49,0,0,0,3.24-.94A6.45,6.45,0,0,1,140.87,285.47Z" style="fill: rgb(69, 90, 100); transform-origin: 134.035px 275.84px;" id="elteypbyj74x" class="animable"></path><path d="M133,265.12s.17-.14.54-.16a2.34,2.34,0,0,1,1.48.47,2.63,2.63,0,0,1,1.1,2,2.61,2.61,0,0,1-4.44,1.67,2.66,2.66,0,0,1-.5-2.26,2.39,2.39,0,0,1,.8-1.33c.29-.22.5-.25.51-.23a2.92,2.92,0,0,0-.92,1.63,2.3,2.3,0,0,0,.5,1.85,2.13,2.13,0,0,0,3.54-1.33,2.31,2.31,0,0,0-.84-1.72A2.9,2.9,0,0,0,133,265.12Z" style="fill: rgb(69, 90, 100); transform-origin: 133.614px 267.407px;" id="elfro77l1csy" class="animable"></path><path d="M148.23,196.53c.11-2.71,4.29-22.12,4.29-22.46s-4.14-28.87-4.14-28.87l-.91-8.93-20,12s-8.52-6.41-8.32-6.75l-4.71,28.27-9.55,88.38s3.28,4,15.78,5.81c15.6,2.28,38.11-5.81,38.11-5.81S148.11,199.24,148.23,196.53Z" style="fill: rgb(224, 224, 224); transform-origin: 131.835px 200.328px;" id="eliq8re002kka" class="animable"></path><g id="elhwzwbh5ep99"><g style="opacity: 0.3; transform-origin: 109.64px 219.75px;" class="animable"><path d="M101.79,289.15s2.95,2.23,4.75-11.17,7.12-69.6,7.12-69.6l3.83-58.17L106,184.09Z" id="el4yau746elcs" class="animable" style="transform-origin: 109.64px 219.75px;"></path></g></g><g id="el16z22y1t5u3i"><g style="opacity: 0.3; transform-origin: 160.725px 270.722px;" class="animable"><path d="M146.45,245.5s5.27,51.43,7.27,50.43S175,287.35,175,287.35L173,270.73Z" id="el99h8xt6frhr" class="animable" style="transform-origin: 160.725px 270.722px;"></path></g></g><polygon points="122.44 155.77 124.94 159.45 128.68 159.45 130.68 155.77 128.47 151.12 125.51 151.28 122.44 155.77" style="fill: rgb(250, 200, 45); transform-origin: 126.56px 155.285px;" id="elvgge9ccnio9" class="animable"></polygon><path d="M146.85,148.29a4.19,4.19,0,0,1-.88.67l-2.51,1.67c-2.13,1.39-5.09,3.28-8.37,5.35L132,157.9l-.21.14-.13-.21a42,42,0,0,1-3.24-6.76c-.34-.86-.6-1.55-.77-2a2.5,2.5,0,0,1-.23-.75,17.56,17.56,0,0,1,1.29,2.66,54.48,54.48,0,0,0,3.36,6.61l-.34-.08,3.08-1.94c3.29-2.06,6.28-3.91,8.46-5.22l2.59-1.53A4.62,4.62,0,0,1,146.85,148.29Z" style="fill: rgb(69, 90, 100); transform-origin: 137.135px 153.165px;" id="elhz7zfsovr0v" class="animable"></path><path d="M118.16,152a7.48,7.48,0,0,1,1.09,1.31c.64.86,1.51,2.07,2.51,3.5h-.4c.4-.57.83-1.19,1.26-1.83,1.27-1.89,2.4-3.62,3.27-4.83a9.28,9.28,0,0,1,1.53-1.88,13.9,13.9,0,0,1-1.23,2.08c-.79,1.26-1.87,3-3.14,4.91-.44.65-.87,1.28-1.29,1.84l-.22.28-.19-.28c-1-1.44-1.79-2.7-2.36-3.6A6.45,6.45,0,0,1,118.16,152Z" style="fill: rgb(69, 90, 100); transform-origin: 122.79px 152.825px;" id="elawjy6yo058" class="animable"></path><polygon points="124.94 159.45 113.66 244.64 120.83 259.52 132.95 243.84 128.68 159.45 124.94 159.45" style="fill: rgb(250, 200, 45); transform-origin: 123.305px 209.485px;" id="eltxnvfihklbq" class="animable"></polygon><path d="M72.14,136.33c-.07-.09,5.73-4.61,5.73-4.16s10.52,15.91,10.52,15.91l-6.24,4.28L71.7,136.6" style="fill: rgb(224, 224, 224); transform-origin: 80.045px 142.249px;" id="elle9rxfw2lfs" class="animable"></path><path d="M98.49,287.53a3.19,3.19,0,0,0,4.75-2.5l6.2-63.64,9.37-78.62-3.3,2.8s-17.6,1.27-18,1.56-3.94,11.06-5.5,24.4-.37,54.81-.37,54.81L85,278.55Z" style="fill: rgb(38, 50, 56); transform-origin: 101.905px 215.357px;" id="elag4eslasfe" class="animable"></path><path d="M107.78,223a4.71,4.71,0,0,1,0-.86c0-.56.06-1.39.06-2.45,0-2.14.07-5.23,0-9.05,0-7.63-.23-18.19-.49-29.84-.19-7.95-.37-15.39-.53-21.68v-.14l.12-.06,4.27-2.3-.07.28-2.9-4.23-.08-.12.1-.1,5.63-5.33,1.53-1.41a5.5,5.5,0,0,1,.54-.46,3.37,3.37,0,0,1-.48.53l-1.46,1.47-5.52,5.44,0-.21,3,4.2.12.18-.19.11-4.25,2.33.12-.2c.21,6.29.42,13.73.6,21.69.26,11.66.39,22.21.33,29.85,0,3.82-.1,6.92-.2,9.05,0,1.07-.12,1.9-.16,2.46A5.21,5.21,0,0,1,107.78,223Z" style="fill: rgb(69, 90, 100); transform-origin: 111.39px 184.125px;" id="el09125wh0kswg" class="animable"></path><path d="M105.77,259.21a1.36,1.36,0,0,1,0,.48c0,.37-.08.83-.13,1.37-.15,1.27-.35,3-.59,5-.51,4.25-1.26,10.11-2.12,16.58-.31,2.28-.61,4.47-.88,6.51l-.05.37-.32-.18-10.65-6L88,281.57a10,10,0,0,1-1.08-.69,6.18,6.18,0,0,1,1.16.54l3.14,1.66,10.74,5.86-.36.18c.27-2,.55-4.24.85-6.52.86-6.47,1.67-12.32,2.28-16.55.31-2.06.56-3.75.75-5,.09-.55.17-1,.23-1.36A2.71,2.71,0,0,1,105.77,259.21Z" style="fill: rgb(69, 90, 100); transform-origin: 96.3557px 274.365px;" id="el31aj123k6ww" class="animable"></path><path d="M98.74,147.13a7.52,7.52,0,0,0-4.94,2.11c-2,2-6.19,5.74-6.19,5.74L67,163.49l18-13.28-12.15-16S53,147.72,45.42,152.85,33.48,166.12,35,171.58s2.94,7.64,13.72,10.32c4.42,1.1,42.2,5.07,42.2,5.07l6.24-28.57Z" style="fill: rgb(38, 50, 56); transform-origin: 66.7196px 160.59px;" id="elj4qwheqivl" class="animable"></path><path d="M58.28,177a22.44,22.44,0,0,1,1.84-1.5,19,19,0,0,0,6-9.42c.39-1.41.5-2.31.59-2.3a7.23,7.23,0,0,1-.23,2.38,16.42,16.42,0,0,1-2.21,5.36,16.74,16.74,0,0,1-3.92,4.27A7.15,7.15,0,0,1,58.28,177Z" style="fill: rgb(69, 90, 100); transform-origin: 62.5038px 170.39px;" id="el4vvbmg7zb36" class="animable"></path><path d="M93.06,158.87a6.8,6.8,0,0,1,0,1.43c-.06,1-.14,2.31-.24,3.87-.21,3.27-.48,7.78-.71,12.77s-.34,9.51-.43,12.78c0,1.56-.07,2.86-.1,3.88a8.17,8.17,0,0,1-.1,1.42,7.07,7.07,0,0,1-.1-1.42c0-.92-.06-2.24-.06-3.88,0-3.28,0-7.81.27-12.81s.56-9.51.86-12.77c.15-1.63.29-2.95.41-3.86A8.56,8.56,0,0,1,93.06,158.87Z" style="fill: rgb(69, 90, 100); transform-origin: 92.2089px 176.945px;" id="elx6a6kge2o9k" class="animable"></path><path d="M148,137.09c.7.54,8.64,8.22,8.64,8.22s18.16,2,18.68,2.57c.37.38.54,38.42.44,39.27-1,9-4.52,39.77-4.52,39.77l14.93,52L155,291.75s-6.34-32-9.3-49.32-2.09-22.22-1.75-39,4-58.14,4-58.14Z" style="fill: rgb(38, 50, 56); transform-origin: 164.867px 214.42px;" id="el4p6l2ww7drh" class="animable"></path><path d="M145.69,220.47a4.17,4.17,0,0,1,.06-.82c.07-.53.15-1.32.31-2.32.32-2,.82-4.92,1.53-8.49,1.39-7.14,3.51-17,6-27.79,2-8.68,3.85-16.68,5.39-23.1l.07.21L155.32,155l-.16-.13.15-.14,3.74-3.52,0,.15c-.74-1.89-1.33-3.39-1.76-4.47-.18-.48-.33-.88-.45-1.18s-.14-.41-.12-.42a2.37,2.37,0,0,1,.2.39l.51,1.16c.45,1.06,1.09,2.55,1.88,4.42l0,.08-.07.07L155.56,155v-.27l3.73,3.1.09.08,0,.13c-1.48,6.45-3.31,14.45-5.29,23.11-2.46,10.83-4.63,20.64-6.12,27.75-.75,3.56-1.31,6.45-1.68,8.45-.19,1-.3,1.78-.4,2.3S145.7,220.47,145.69,220.47Z" style="fill: rgb(69, 90, 100); transform-origin: 152.534px 182.88px;" id="elom4e5d6ifn" class="animable"></path><path d="M186.21,278.93a3.49,3.49,0,0,1-.58.28l-1.73.76-6.48,2.74L155.09,292l-.29.12-.05-.3-2.13-11.46c-2.24-12.32-4.27-23.47-5.75-31.59-.71-4-1.28-7.27-1.69-9.58-.18-1.1-.33-2-.43-2.61,0-.28-.07-.5-.1-.68a.87.87,0,0,1,0-.24,1,1,0,0,1,.07.23l.15.67c.13.63.31,1.5.53,2.59.44,2.3,1.07,5.55,1.85,9.55,1.51,8.12,3.6,19.26,5.9,31.57.73,4,1.44,7.85,2.11,11.46l-.34-.19,22.4-9.1,6.54-2.61,1.75-.68A2.93,2.93,0,0,1,186.21,278.93Z" style="fill: rgb(69, 90, 100); transform-origin: 165.426px 263.89px;" id="elrhq0rlr71fi" class="animable"></path><path d="M165.54,236.15a13.69,13.69,0,0,1-.44-2.88c-.19-1.79-.36-4.28-.39-7s.06-5.24.2-7a15.79,15.79,0,0,1,.36-2.9,17.81,17.81,0,0,1,0,2.92c0,1.79-.09,4.27-.05,7s.14,5.22.23,7A20.09,20.09,0,0,1,165.54,236.15Z" style="fill: rgb(69, 90, 100); transform-origin: 165.13px 226.26px;" id="eli63rb43jm2i" class="animable"></path><path d="M166.6,240.79s-.22-.24-.53-.72-.74-1.18-1.24-2.06a70.47,70.47,0,0,1-3.47-7.15,69.58,69.58,0,0,1-2.65-7.5c-.27-1-.48-1.78-.6-2.33a3.33,3.33,0,0,1-.14-.88,25.51,25.51,0,0,1,1.1,3.1c.64,1.92,1.58,4.56,2.77,7.41s2.4,5.37,3.32,7.17A29.12,29.12,0,0,1,166.6,240.79Z" style="fill: rgb(69, 90, 100); transform-origin: 162.285px 230.47px;" id="el9rc25ujs89t" class="animable"></path><path d="M187,222.54l-.35-1-5.89,5.92s-12.38-.1-14.68.72a2.39,2.39,0,0,0-.64,4.28s-1.73,2.68.49,4.37l1.33.8s-1.36,2.94.77,4.21,1.91.44,1.89,1.63.6,2.82,1.68,3.1,13.07-4.3,15.5-5.7,6.65-6,6.65-6Z" style="fill: rgb(255, 191, 157); transform-origin: 179.062px 234.061px;" id="el6qpo5xgp23m" class="animable"></path><path d="M182.53,152.22c2.89,3.91,7.63,11.2,7.63,11.2s25.39,19.6,31.61,24.68c8.9,7.27,4.07,16.55,2,19.53s-31,32.09-31,32.09l-12.36-15,18.48-23.59-.14-1.6-23-12.39-3.87,9-.07-40.71,2.43-7.19,1.07-.41A12.93,12.93,0,0,1,182.53,152.22Z" style="fill: rgb(38, 50, 56); transform-origin: 199.379px 193.775px;" id="elxpwpb3y2vm" class="animable"></path><path d="M177.59,164.59c.15,0-.35,6.58-1.1,14.66s-1.47,14.62-1.62,14.6.36-6.57,1.11-14.65S177.45,164.58,177.59,164.59Z" style="fill: rgb(69, 90, 100); transform-origin: 176.23px 179.22px;" id="elw9n9fuoschq" class="animable"></path><path d="M211.83,193.19a22.58,22.58,0,0,0-13.16,8.46,7.09,7.09,0,0,1,1.28-2,18,18,0,0,1,9.52-6.13A7,7,0,0,1,211.83,193.19Z" style="fill: rgb(69, 90, 100); transform-origin: 205.25px 197.418px;" id="elfml487qggf8" class="animable"></path><path d="M182.45,230.89c-.13.07-.63-.61-1.12-1.52s-.79-1.69-.67-1.76.63.61,1.13,1.52S182.58,230.83,182.45,230.89Z" style="fill: rgb(255, 154, 108); transform-origin: 181.557px 229.25px;" id="elgg4fbl3hnpp" class="animable"></path><path d="M77.79,131.6A25.78,25.78,0,0,1,81.58,128,57.29,57.29,0,0,1,92,124c1-.1,2.72-.17,2.72-.17s4.22-1.85,5.19.63c0,0,.33,1.42-.17,1.92a2.26,2.26,0,0,1,1.75,3.88s2.35,1.86,1.36,3.87c0,0,1.82,1.68,1.49,3.2s-1.1,1.75-2.57,2.32a27.91,27.91,0,0,1-4.39,1,1.81,1.81,0,0,0-.8,1.87c.21,1.31,2.73,1.15,5.23,3.82,1.94,2.06,2.51,3.65,1.69,4.37-.44.39-1.78.87-4.35-1.09-3.64-2.77-5.21-1.29-6.94-1.85s-5.47-2.19-5.47-2.19S77,135.08,77.79,131.6Z" style="fill: rgb(255, 191, 157); transform-origin: 91.0622px 137.114px;" id="elpugktc8zcrb" class="animable"></path><path d="M99.43,126.37a4,4,0,0,1-1.67,1.84,10,10,0,0,1-2.43,1.19c-.48.17-1,.33-1.52.48l-.82.22a1.13,1.13,0,0,1-1-.22,1.77,1.77,0,0,1-.4-1.74,2.82,2.82,0,0,1,.86-1.36,4.93,4.93,0,0,1,2.44-1l-.14.13a2.57,2.57,0,0,1,1.44-1.51c.47-.18.76-.15.76-.12s-.26.09-.67.31A2.52,2.52,0,0,0,95.07,126l0,.1-.11,0a4.74,4.74,0,0,0-2.19,1,2.32,2.32,0,0,0-.69,1.13,1.27,1.27,0,0,0,.25,1.22c.25.29.84,0,1.37-.11s1-.28,1.5-.43a10.74,10.74,0,0,0,2.39-1A13.31,13.31,0,0,0,99.43,126.37Z" style="fill: rgb(255, 154, 108); transform-origin: 95.4698px 127.197px;" id="elkdfl58crvki" class="animable"></path><path d="M93.29,129.7a2.59,2.59,0,0,0-.06,1.54,2,2,0,0,0,1.11,1.11,3.35,3.35,0,0,0,2,0,36.18,36.18,0,0,0,5.21-2.09,11.16,11.16,0,0,1-5.09,2.59,3.64,3.64,0,0,1-2.33,0,2.25,2.25,0,0,1-1.28-1.45,1.92,1.92,0,0,1,.11-1.29C93.12,129.79,93.26,129.68,93.29,129.7Z" style="fill: rgb(255, 154, 108); transform-origin: 97.168px 131.37px;" id="elhjqopexa7xc" class="animable"></path><path d="M95.48,132.78a3.69,3.69,0,0,0-1,1.54,2,2,0,0,0,.37,1.81,1.81,1.81,0,0,0,.9.62,2.3,2.3,0,0,0,1.19,0c.86-.23,1.7-.57,2.45-.81a20.25,20.25,0,0,0,2-.72A3.73,3.73,0,0,0,102.8,134s0,.21-.18.52a3.1,3.1,0,0,1-1.12,1,14.55,14.55,0,0,1-2,.84c-.77.27-1.56.61-2.5.86a2.68,2.68,0,0,1-1.46,0,2.37,2.37,0,0,1-1.47-3A2.58,2.58,0,0,1,95,133C95.27,132.8,95.46,132.75,95.48,132.78Z" style="fill: rgb(255, 154, 108); transform-origin: 98.3724px 135.047px;" id="elhxlo0cw5hep" class="animable"></path><path d="M99.63,140.2c0,.06-.47.28-1.33.37a3.25,3.25,0,0,1-1.54-.19,2.61,2.61,0,0,1-1.28-1.46,1.38,1.38,0,0,1,.06-1.11,1.9,1.9,0,0,1,.66-.75,8.08,8.08,0,0,1,1.41-.54c.81-.24,1.35-.27,1.36-.2a5.6,5.6,0,0,1-1.24.55,11.87,11.87,0,0,0-1.28.6,1.15,1.15,0,0,0-.48,1.26A2.33,2.33,0,0,0,97,140a3.43,3.43,0,0,0,1.33.25A6.86,6.86,0,0,1,99.63,140.2Z" style="fill: rgb(255, 154, 108); transform-origin: 97.5106px 138.44px;" id="eld9wu1tcxcbf" class="animable"></path><path d="M89.19,133a3.92,3.92,0,0,1,1.23,1.47,7.58,7.58,0,0,1,.8,1.93c.12.37.16.83.28,1.14s.4.39.87.52A6.05,6.05,0,0,1,96,141a3.31,3.31,0,0,1,.54,1.84c-.09,0-.24-.7-.86-1.65a6.13,6.13,0,0,0-3.43-2.57,3.82,3.82,0,0,1-.67-.23,1.1,1.1,0,0,1-.53-.6,12.07,12.07,0,0,1-.27-1.21,8.89,8.89,0,0,0-.67-1.88C89.59,133.64,89.12,133.09,89.19,133Z" style="fill: rgb(255, 154, 108); transform-origin: 92.8616px 137.92px;" id="el5nm2fn7zhgo" class="animable"></path><path d="M94.56,137.25a17.48,17.48,0,0,1-3-5.05,17,17,0,0,1-1.64-5.64c.15,0,.82,2.49,2.12,5.44S94.69,137.16,94.56,137.25Z" style="fill: rgb(255, 154, 108); transform-origin: 92.2443px 131.905px;" id="el9vodc9jzda" class="animable"></path></g><defs>     <filter id="active" height="200%">         <feMorphology in="SourceAlpha" result="DILATED" operator="dilate" radius="2"></feMorphology>                <feFlood flood-color="#32DFEC" flood-opacity="1" result="PINK"></feFlood>        <feComposite in="PINK" in2="DILATED" operator="in" result="OUTLINE"></feComposite>        <feMerge>            <feMergeNode in="OUTLINE"></feMergeNode>            <feMergeNode in="SourceGraphic"></feMergeNode>        </feMerge>    </filter>    <filter id="hover" height="200%">        <feMorphology in="SourceAlpha" result="DILATED" operator="dilate" radius="2"></feMorphology>                <feFlood flood-color="#ff0000" flood-opacity="0.5" result="PINK"></feFlood>        <feComposite in="PINK" in2="DILATED" operator="in" result="OUTLINE"></feComposite>        <feMerge>            <feMergeNode in="OUTLINE"></feMergeNode>            <feMergeNode in="SourceGraphic"></feMergeNode>        </feMerge>            <feColorMatrix type="matrix" values="0   0   0   0   0                0   1   0   0   0                0   0   0   0   0                0   0   0   1   0 "></feColorMatrix>    </filter></defs></svg>